# This file was created with Minddesk Qubicle 2.0
# Get Qubicle at www.minddesk.com

mtllib voxel_human.mtl

vn 0.0 0.0 1.0
vn 0.0 0.0 -1.0
vn -1.0 0.0 0.0
vn 1.0 0.0 0.0
vn 0.0 1.0 0.0
vn 0.0 -1.0 0.0

v 0.50000 -6.50000 -6.00000
v 0.50000 -7.50000 -6.00000
v 0.50000 -7.50000 -7.00000
v 0.50000 -6.50000 -7.00000
v -0.50000 -6.50000 -7.00000
v -0.50000 -7.50000 -7.00000
v -0.50000 -7.50000 -6.00000
v -0.50000 -6.50000 -6.00000
v 0.50000 -6.50000 -4.00000
v 0.50000 -7.50000 -4.00000
v 0.50000 -7.50000 -5.00000
v 0.50000 -6.50000 -5.00000
v -0.50000 -6.50000 -5.00000
v -0.50000 -7.50000 -5.00000
v -0.50000 -7.50000 -4.00000
v -0.50000 -6.50000 -4.00000
v 0.50000 -5.50000 -6.00000
v 0.50000 -5.50000 -7.00000
v -0.50000 -5.50000 -7.00000
v -0.50000 -5.50000 -6.00000
v 0.50000 -5.50000 -4.00000
v 0.50000 -5.50000 -5.00000
v -0.50000 -5.50000 -5.00000
v -0.50000 -5.50000 -4.00000
v 0.50000 -4.50000 -6.00000
v 0.50000 -4.50000 -7.00000
v -0.50000 -4.50000 -7.00000
v -0.50000 -4.50000 -6.00000
v 0.50000 -4.50000 -4.00000
v 0.50000 -4.50000 -5.00000
v -0.50000 -4.50000 -5.00000
v -0.50000 -4.50000 -4.00000
v 0.50000 -3.50000 -6.00000
v 0.50000 -3.50000 -7.00000
v -0.50000 -3.50000 -7.00000
v -0.50000 -3.50000 -6.00000
v 0.50000 -3.50000 -4.00000
v 0.50000 -3.50000 -5.00000
v -0.50000 -3.50000 -5.00000
v -0.50000 -3.50000 -4.00000
v 0.50000 -2.50000 -6.00000
v 0.50000 -2.50000 -7.00000
v -0.50000 -2.50000 -7.00000
v -0.50000 -2.50000 -6.00000
v 0.50000 -2.50000 -4.00000
v 0.50000 -2.50000 -5.00000
v -0.50000 -2.50000 -5.00000
v -0.50000 -2.50000 -4.00000
v 0.50000 -1.50000 -6.00000
v 0.50000 -1.50000 -7.00000
v -0.50000 -1.50000 -7.00000
v -0.50000 -1.50000 -6.00000
v 0.50000 -1.50000 -5.00000
v -0.50000 -1.50000 -5.00000
v 0.50000 -1.50000 -4.00000
v -0.50000 -1.50000 -4.00000
v 0.50000 -0.50000 -5.00000
v 0.50000 -0.50000 -6.00000
v -0.50000 -0.50000 -6.00000
v -0.50000 -0.50000 -5.00000
v 0.50000 0.50000 -5.00000
v 0.50000 0.50000 -6.00000
v -0.50000 0.50000 -6.00000
v -0.50000 0.50000 -5.00000
v 0.50000 1.50000 -10.00000
v 0.50000 0.50000 -10.00000
v 0.50000 0.50000 -11.00000
v 0.50000 1.50000 -11.00000
v -0.50000 1.50000 -11.00000
v -0.50000 0.50000 -11.00000
v -0.50000 0.50000 -10.00000
v -0.50000 1.50000 -10.00000
v 0.50000 1.50000 -9.00000
v 0.50000 0.50000 -9.00000
v -0.50000 0.50000 -9.00000
v -0.50000 1.50000 -9.00000
v 0.50000 1.50000 -8.00000
v 0.50000 0.50000 -8.00000
v -0.50000 0.50000 -8.00000
v -0.50000 1.50000 -8.00000
v 0.50000 1.50000 -7.00000
v 0.50000 0.50000 -7.00000
v -0.50000 0.50000 -7.00000
v -0.50000 1.50000 -7.00000
v 0.50000 1.50000 -6.00000
v -0.50000 1.50000 -6.00000
v 0.50000 1.50000 -5.00000
v -0.50000 1.50000 -5.00000
v 0.50000 1.50000 -4.00000
v 0.50000 0.50000 -4.00000
v -0.50000 0.50000 -4.00000
v -0.50000 1.50000 -4.00000
v 0.50000 1.50000 -3.00000
v 0.50000 0.50000 -3.00000
v -0.50000 0.50000 -3.00000
v -0.50000 1.50000 -3.00000
v 0.50000 1.50000 -2.00000
v 0.50000 0.50000 -2.00000
v -0.50000 0.50000 -2.00000
v -0.50000 1.50000 -2.00000
v 0.50000 1.50000 -1.00000
v 0.50000 0.50000 -1.00000
v -0.50000 0.50000 -1.00000
v -0.50000 1.50000 -1.00000
v 0.50000 1.50000 0.00000
v 0.50000 0.50000 0.00000
v -0.50000 0.50000 0.00000
v -0.50000 1.50000 0.00000
v 0.50000 2.50000 -5.00000
v 0.50000 2.50000 -6.00000
v -0.50000 2.50000 -6.00000
v -0.50000 2.50000 -5.00000
v 0.50000 3.50000 -6.00000
v 0.50000 2.50000 -7.00000
v 0.50000 3.50000 -7.00000
v -0.50000 3.50000 -7.00000
v -0.50000 2.50000 -7.00000
v -0.50000 3.50000 -6.00000
v 0.50000 3.50000 -5.00000
v -0.50000 3.50000 -5.00000
v 0.50000 3.50000 -4.00000
v 0.50000 2.50000 -4.00000
v -0.50000 2.50000 -4.00000
v -0.50000 3.50000 -4.00000
v 0.50000 4.50000 -7.00000
v 0.50000 3.50000 -8.00000
v 0.50000 4.50000 -8.00000
v -0.50000 4.50000 -8.00000
v -0.50000 3.50000 -8.00000
v -0.50000 4.50000 -7.00000
v 0.50000 4.50000 -6.00000
v -0.50000 4.50000 -6.00000
v 0.50000 4.50000 -5.00000
v -0.50000 4.50000 -5.00000
v 0.50000 4.50000 -4.00000
v -0.50000 4.50000 -4.00000
v 0.50000 4.50000 -3.00000
v 0.50000 3.50000 -3.00000
v -0.50000 3.50000 -3.00000
v -0.50000 4.50000 -3.00000
v 0.50000 5.50000 -7.00000
v 0.50000 5.50000 -8.00000
v -0.50000 5.50000 -8.00000
v -0.50000 5.50000 -7.00000
v 0.50000 5.50000 -6.00000
v -0.50000 5.50000 -6.00000
v 0.50000 5.50000 -5.00000
v -0.50000 5.50000 -5.00000
v 0.50000 5.50000 -4.00000
v -0.50000 5.50000 -4.00000
v 0.50000 5.50000 -3.00000
v -0.50000 5.50000 -3.00000
v 0.50000 6.50000 -7.00000
v 0.50000 6.50000 -8.00000
v -0.50000 6.50000 -8.00000
v -0.50000 6.50000 -7.00000
v 0.50000 6.50000 -6.00000
v -0.50000 6.50000 -6.00000
v 0.50000 6.50000 -5.00000
v -0.50000 6.50000 -5.00000
v 0.50000 6.50000 -4.00000
v -0.50000 6.50000 -4.00000
v 0.50000 6.50000 -3.00000
v -0.50000 6.50000 -3.00000
v 0.50000 7.50000 -6.00000
v 0.50000 7.50000 -7.00000
v -0.50000 7.50000 -7.00000
v -0.50000 7.50000 -6.00000
v 0.50000 7.50000 -5.00000
v -0.50000 7.50000 -5.00000
v 0.50000 7.50000 -4.00000
v -0.50000 7.50000 -4.00000

vt 0.06250 0.25000
vt 0.06250 0.12500
vt 0.12500 0.12500
vt 0.12500 0.25000
vt 0.25000 0.25000
vt 0.25000 0.12500
vt 0.31250 0.12500
vt 0.31250 0.25000
vt 0.43750 0.25000
vt 0.43750 0.12500
vt 0.50000 0.12500
vt 0.50000 0.25000
vt 0.06250 0.62500
vt 0.06250 0.50000
vt 0.12500 0.50000
vt 0.12500 0.62500

g voxel_human
usemtl voxel_human_Material
f  1/1/4 2/2/4 3/3/4 4/4/4
f  5/1/3 6/2/3 7/3/3 8/4/3
f  7/1/6 6/2/6 3/3/6 2/4/6
f  4/1/2 3/2/2 6/3/2 5/4/2
f  8/1/1 7/2/1 2/3/1 1/4/1
f  9/1/4 10/2/4 11/3/4 12/4/4
f  13/1/3 14/2/3 15/3/3 16/4/3
f  15/1/6 14/2/6 11/3/6 10/4/6
f  12/1/2 11/2/2 14/3/2 13/4/2
f  16/1/1 15/2/1 10/3/1 9/4/1
f  17/5/4 1/6/4 4/7/4 18/8/4
f  19/5/3 5/6/3 8/7/3 20/8/3
f  18/5/2 4/6/2 5/7/2 19/8/2
f  20/5/1 8/6/1 1/7/1 17/8/1
f  21/5/4 9/6/4 12/7/4 22/8/4
f  23/5/3 13/6/3 16/7/3 24/8/3
f  22/5/2 12/6/2 13/7/2 23/8/2
f  24/5/1 16/6/1 9/7/1 21/8/1
f  25/5/4 17/6/4 18/7/4 26/8/4
f  27/5/3 19/6/3 20/7/3 28/8/3
f  26/5/2 18/6/2 19/7/2 27/8/2
f  28/5/1 20/6/1 17/7/1 25/8/1
f  29/5/4 21/6/4 22/7/4 30/8/4
f  31/5/3 23/6/3 24/7/3 32/8/3
f  30/5/2 22/6/2 23/7/2 31/8/2
f  32/5/1 24/6/1 21/7/1 29/8/1
f  33/5/4 25/6/4 26/7/4 34/8/4
f  35/5/3 27/6/3 28/7/3 36/8/3
f  34/5/2 26/6/2 27/7/2 35/8/2
f  36/5/1 28/6/1 25/7/1 33/8/1
f  37/5/4 29/6/4 30/7/4 38/8/4
f  39/5/3 31/6/3 32/7/3 40/8/3
f  38/5/2 30/6/2 31/7/2 39/8/2
f  40/5/1 32/6/1 29/7/1 37/8/1
f  41/5/4 33/6/4 34/7/4 42/8/4
f  43/5/3 35/6/3 36/7/3 44/8/3
f  42/5/2 34/6/2 35/7/2 43/8/2
f  44/5/1 36/6/1 33/7/1 41/8/1
f  45/5/4 37/6/4 38/7/4 46/8/4
f  47/5/3 39/6/3 40/7/3 48/8/3
f  46/5/2 38/6/2 39/7/2 47/8/2
f  48/5/1 40/6/1 37/7/1 45/8/1
f  49/5/4 41/6/4 42/7/4 50/8/4
f  51/5/3 43/6/3 44/7/3 52/8/3
f  51/5/5 52/6/5 49/7/5 50/8/5
f  50/5/2 42/6/2 43/7/2 51/8/2
f  53/5/4 46/6/4 41/7/4 49/8/4
f  52/5/3 44/6/3 47/7/3 54/8/3
f  47/5/6 44/6/6 41/7/6 46/8/6
f  55/5/4 45/6/4 46/7/4 53/8/4
f  54/5/3 47/6/3 48/7/3 56/8/3
f  54/5/5 56/6/5 55/7/5 53/8/5
f  56/5/1 48/6/1 45/7/1 55/8/1
f  57/9/4 53/10/4 49/11/4 58/12/4
f  59/9/3 52/10/3 54/11/3 60/12/3
f  58/9/2 49/10/2 52/11/2 59/12/2
f  60/9/1 54/10/1 53/11/1 57/12/1
f  61/9/4 57/10/4 58/11/4 62/12/4
f  63/9/3 59/10/3 60/11/3 64/12/3
f  62/9/2 58/10/2 59/11/2 63/12/2
f  64/9/1 60/10/1 57/11/1 61/12/1
f  65/1/4 66/2/4 67/3/4 68/4/4
f  69/1/3 70/2/3 71/3/3 72/4/3
f  69/1/5 72/2/5 65/3/5 68/4/5
f  71/1/6 70/2/6 67/3/6 66/4/6
f  68/1/2 67/2/2 70/3/2 69/4/2
f  73/9/4 74/10/4 66/11/4 65/12/4
f  72/9/3 71/10/3 75/11/3 76/12/3
f  72/9/5 76/10/5 73/11/5 65/12/5
f  75/9/6 71/10/6 66/11/6 74/12/6
f  77/9/4 78/10/4 74/11/4 73/12/4
f  76/9/3 75/10/3 79/11/3 80/12/3
f  76/9/5 80/10/5 77/11/5 73/12/5
f  79/9/6 75/10/6 74/11/6 78/12/6
f  81/9/4 82/10/4 78/11/4 77/12/4
f  80/9/3 79/10/3 83/11/3 84/12/3
f  80/9/5 84/10/5 81/11/5 77/12/5
f  83/9/6 79/10/6 78/11/6 82/12/6
f  85/9/4 62/10/4 82/11/4 81/12/4
f  84/9/3 83/10/3 63/11/3 86/12/3
f  84/9/5 86/10/5 85/11/5 81/12/5
f  63/9/6 83/10/6 82/11/6 62/12/6
f  87/9/4 61/10/4 62/11/4 85/12/4
f  86/9/3 63/10/3 64/11/3 88/12/3
f  89/9/4 90/10/4 61/11/4 87/12/4
f  88/9/3 64/10/3 91/11/3 92/12/3
f  88/9/5 92/10/5 89/11/5 87/12/5
f  91/9/6 64/10/6 61/11/6 90/12/6
f  93/9/4 94/10/4 90/11/4 89/12/4
f  92/9/3 91/10/3 95/11/3 96/12/3
f  92/9/5 96/10/5 93/11/5 89/12/5
f  95/9/6 91/10/6 90/11/6 94/12/6
f  97/9/4 98/10/4 94/11/4 93/12/4
f  96/9/3 95/10/3 99/11/3 100/12/3
f  96/9/5 100/10/5 97/11/5 93/12/5
f  99/9/6 95/10/6 94/11/6 98/12/6
f  101/9/4 102/10/4 98/11/4 97/12/4
f  100/9/3 99/10/3 103/11/3 104/12/3
f  100/9/5 104/10/5 101/11/5 97/12/5
f  103/9/6 99/10/6 98/11/6 102/12/6
f  105/1/4 106/2/4 102/3/4 101/4/4
f  104/1/3 103/2/3 107/3/3 108/4/3
f  104/1/5 108/2/5 105/3/5 101/4/5
f  107/1/6 103/2/6 102/3/6 106/4/6
f  108/1/1 107/2/1 106/3/1 105/4/1
f  109/1/4 87/2/4 85/3/4 110/4/4
f  111/1/3 86/2/3 88/3/3 112/4/3
f  110/1/2 85/2/2 86/3/2 111/4/2
f  112/1/1 88/2/1 87/3/1 109/4/1
f  113/1/4 110/2/4 114/3/4 115/4/4
f  116/1/3 117/2/3 111/3/3 118/4/3
f  111/1/6 117/2/6 114/3/6 110/4/6
f  115/1/2 114/2/2 117/3/2 116/4/2
f  119/1/4 109/2/4 110/3/4 113/4/4
f  118/1/3 111/2/3 112/3/3 120/4/3
f  121/1/4 122/2/4 109/3/4 119/4/4
f  120/1/3 112/2/3 123/3/3 124/4/3
f  123/1/6 112/2/6 109/3/6 122/4/6
f  124/1/1 123/2/1 122/3/1 121/4/1
f  125/1/4 115/2/4 126/3/4 127/4/4
f  128/1/3 129/2/3 116/3/3 130/4/3
f  116/1/6 129/2/6 126/3/6 115/4/6
f  127/1/2 126/2/2 129/3/2 128/4/2
f  131/1/4 113/2/4 115/3/4 125/4/4
f  130/1/3 116/2/3 118/3/3 132/4/3
f  133/1/4 119/2/4 113/3/4 131/4/4
f  132/1/3 118/2/3 120/3/3 134/4/3
f  135/1/4 121/2/4 119/3/4 133/4/4
f  134/1/3 120/2/3 124/3/3 136/4/3
f  137/1/4 138/2/4 121/3/4 135/4/4
f  136/1/3 124/2/3 139/3/3 140/4/3
f  139/1/6 124/2/6 121/3/6 138/4/6
f  140/1/1 139/2/1 138/3/1 137/4/1
f  141/1/4 125/2/4 127/3/4 142/4/4
f  143/1/3 128/2/3 130/3/3 144/4/3
f  142/1/2 127/2/2 128/3/2 143/4/2
f  145/13/4 131/14/4 125/15/4 141/16/4
f  144/13/3 130/14/3 132/15/3 146/16/3
f  147/1/4 133/2/4 131/3/4 145/4/4
f  146/1/3 132/2/3 134/3/3 148/4/3
f  149/13/4 135/14/4 133/15/4 147/16/4
f  148/13/3 134/14/3 136/15/3 150/16/3
f  151/1/4 137/2/4 135/3/4 149/4/4
f  150/1/3 136/2/3 140/3/3 152/4/3
f  152/1/1 140/2/1 137/3/1 151/4/1
f  153/1/4 141/2/4 142/3/4 154/4/4
f  155/1/3 143/2/3 144/3/3 156/4/3
f  155/1/5 156/2/5 153/3/5 154/4/5
f  154/1/2 142/2/2 143/3/2 155/4/2
f  157/1/4 145/2/4 141/3/4 153/4/4
f  156/1/3 144/2/3 146/3/3 158/4/3
f  159/1/4 147/2/4 145/3/4 157/4/4
f  158/1/3 146/2/3 148/3/3 160/4/3
f  161/1/4 149/2/4 147/3/4 159/4/4
f  160/1/3 148/2/3 150/3/3 162/4/3
f  163/1/4 151/2/4 149/3/4 161/4/4
f  162/1/3 150/2/3 152/3/3 164/4/3
f  162/1/5 164/2/5 163/3/5 161/4/5
f  164/1/1 152/2/1 151/3/1 163/4/1
f  165/1/4 157/2/4 153/3/4 166/4/4
f  167/1/3 156/2/3 158/3/3 168/4/3
f  167/1/5 168/2/5 165/3/5 166/4/5
f  166/1/2 153/2/2 156/3/2 167/4/2
f  169/1/4 159/2/4 157/3/4 165/4/4
f  168/1/3 158/2/3 160/3/3 170/4/3
f  168/1/5 170/2/5 169/3/5 165/4/5
f  171/1/4 161/2/4 159/3/4 169/4/4
f  170/1/3 160/2/3 162/3/3 172/4/3
f  170/1/5 172/2/5 171/3/5 169/4/5
f  172/1/1 162/2/1 161/3/1 171/4/1
